# xmcd CD database file
#
# Track frame offsets:
#	150
#	6600
#	24637
#	45640
#	63395
#	84930
#
# Disc length: 1495 seconds
#
# Revision: 1
# Processed by: cddbd v1.5.2PL0 Copyright (c) Steve Scherf et al.
# Submitted via: CDex 1.70beta3
#
DISCID=4505d506
DTITLE=笠原弘子 - Holy Chain ～聖なる鎖～
DYEAR=2004
DGENRE=Pop
TTITLE0=Holy Chain ～聖なる鎖～ プレリュード
TTITLE1=常夜の果実
TTITLE2=星のララバイ
TTITLE3=RAIN FOREST ～イグアナの独白～
TTITLE4=Fleurs et Fleurs
TTITLE5=Holy Chain ～聖なる鎖～
EXTD=YEAR: 2004
EXTT0=
EXTT1=
EXTT2=
EXTT3=
EXTT4=
EXTT5=
PLAYORDER=
